<svg width="32" height="32" viewBox="0 0 32 32" fill="none" xmlns="http://www.w3.org/2000/svg">
<g clip-path="url(#clip0_3_3)">
<path d="M22.4016 12.48C21.9391 12.48 21.4812 12.5711 21.0539 12.7481C20.6267 12.9251 20.2385 13.1845 19.9115 13.5115C19.5844 13.8385 19.325 14.2267 19.1481 14.654C18.9711 15.0812 18.88 15.5391 18.88 16.0016C18.88 16.4641 18.9711 16.922 19.1481 17.3493C19.325 17.7765 19.5844 18.1647 19.9115 18.4918C20.2385 18.8188 20.6267 19.0782 21.0539 19.2551C21.4812 19.4321 21.9391 19.5232 22.4016 19.5232C23.3356 19.523 24.2312 19.1518 24.8915 18.4912C25.5518 17.8306 25.9226 16.9348 25.9224 16.0008C25.9222 15.0668 25.551 14.1712 24.8904 13.5109C24.2298 12.8506 23.334 12.4798 22.4 12.48H22.4016ZM9.6016 12.48C9.13914 12.48 8.6812 12.5711 8.25394 12.7481C7.82668 12.9251 7.43847 13.1845 7.11145 13.5115C6.78444 13.8385 6.52504 14.2267 6.34807 14.654C6.17109 15.0812 6.08 15.5391 6.08 16.0016C6.08 16.4641 6.17109 16.922 6.34807 17.3493C6.52504 17.7765 6.78444 18.1647 7.11145 18.4918C7.43847 18.8188 7.82668 19.0782 8.25394 19.2551C8.6812 19.4321 9.13914 19.5232 9.6016 19.5232C10.5356 19.523 11.4312 19.1518 12.0915 18.4912C12.7518 17.8306 13.1226 16.9348 13.1224 16.0008C13.1222 15.0668 12.751 14.1712 12.0904 13.5109C11.4298 12.8506 10.534 12.4798 9.6 12.48H9.6016Z" fill="#699BF7"/>
<path d="M22.4016 24.48C21.9391 24.48 21.4812 24.5711 21.0539 24.7481C20.6267 24.9251 20.2385 25.1845 19.9115 25.5115C19.5844 25.8385 19.325 26.2267 19.1481 26.654C18.9711 27.0812 18.88 27.5391 18.88 28.0016C18.88 28.4641 18.9711 28.922 19.1481 29.3493C19.325 29.7765 19.5844 30.1647 19.9115 30.4918C20.2385 30.8188 20.6267 31.0782 21.0539 31.2551C21.4812 31.4321 21.9391 31.5232 22.4016 31.5232C23.3356 31.523 24.2312 31.1518 24.8915 30.4912C25.5518 29.8306 25.9226 28.9348 25.9224 28.0008C25.9222 27.0668 25.551 26.1712 24.8904 25.5109C24.2298 24.8506 23.334 24.4798 22.4 24.48H22.4016ZM9.6016 24.48C9.13914 24.48 8.6812 24.5711 8.25394 24.7481C7.82668 24.9251 7.43847 25.1845 7.11145 25.5115C6.78444 25.8385 6.52504 26.2267 6.34807 26.654C6.17109 27.0812 6.08 27.5391 6.08 28.0016C6.08 28.4641 6.17109 28.922 6.34807 29.3493C6.52504 29.7765 6.78444 30.1647 7.11145 30.4918C7.43847 30.8188 7.82668 31.0782 8.25394 31.2551C8.6812 31.4321 9.13914 31.5232 9.6016 31.5232C10.5356 31.523 11.4312 31.1518 12.0915 30.4912C12.7518 29.8306 13.1226 28.9348 13.1224 28.0008C13.1222 27.0668 12.751 26.1712 12.0904 25.5109C11.4298 24.8506 10.534 24.4798 9.6 24.48H9.6016Z" fill="#699BF7"/>
</g>
<defs>
<clipPath id="clip0_3_3">
<rect width="32" height="32" fill="white"/>
</clipPath>
</defs>
</svg>
