<svg width="18" height="18" viewBox="0 0 18 18" fill="none" xmlns="http://www.w3.org/2000/svg">
    <path d="M16.875 9C16.875 13.347 13.3509 16.875 9 16.875C4.64906 16.875 1.125 13.347 1.125 9C1.125 4.64906 4.64906 1.125 9 1.125C13.3509 1.125 16.875 4.64906 16.875 9Z" fill="#283544"/>
    <path d="M12.6912 7.00728C12.6482 7.03235 11.6252 7.5614 11.6252 8.73442C11.6734 10.0722 12.9162 10.5413 12.9375 10.5413C12.9162 10.5664 12.7499 11.1804 12.2573 11.8241C11.8663 12.3785 11.4324 12.9375 10.7734 12.9375C10.1467 12.9375 9.92165 12.568 9.19844 12.568C8.42177 12.568 8.20201 12.9375 7.60736 12.9375C6.94843 12.9375 6.48236 12.3485 6.07009 11.7993C5.53449 11.0805 5.07925 9.95237 5.06318 8.8692C5.05235 8.29523 5.17044 7.73102 5.47021 7.25178C5.8933 6.58274 6.64866 6.12857 7.47355 6.1136C8.10558 6.09374 8.66808 6.51795 9.05379 6.51795C9.42344 6.51795 10.1145 6.1136 10.8964 6.1136C11.2339 6.11392 12.1339 6.20866 12.6912 7.00728ZM9.00034 5.999C8.88784 5.47483 9.19844 4.95067 9.48772 4.61631C9.85737 4.21195 10.4412 3.9375 10.9446 3.9375C10.9768 4.46166 10.7731 4.97574 10.409 5.35014C10.0824 5.75449 9.51987 6.0589 9.00034 5.999Z" fill="white"/>
</svg>
