<svg width="20" height="20" viewBox="0 0 36 36" fill="none" xmlns="http://www.w3.org/2000/svg">
<rect y="0.857147" width="36" height="34.2857" rx="17.1429" fill="#C66821"/>
<path d="M9.90065 7.3237C12.2717 7.01587 14.6891 6.85715 17.1432 6.85715C19.597 6.85715 22.0142 7.01584 24.385 7.3236C26.5819 7.6088 28.1467 9.45071 28.2769 11.5828C27.9046 11.4584 27.5099 11.376 27.0972 11.3417C25.5102 11.21 23.9055 11.1429 22.2857 11.1429C20.6659 11.1429 19.0612 11.21 17.4743 11.3417C14.7791 11.5654 12.8571 13.8453 12.8571 16.4094V21.3071C12.8571 23.2393 13.9482 25.0087 15.6375 25.8604L12.6061 28.8918C12.361 29.1369 11.9923 29.2103 11.672 29.0776C11.3517 28.9449 11.1429 28.6324 11.1429 28.2857V23.6806C10.7274 23.6361 10.3133 23.587 9.90067 23.5335C7.60533 23.2355 6 21.2381 6 18.9859V11.8713C6 9.61911 7.60532 7.6217 9.90065 7.3237Z" fill="#FFFFFF"/>
<path d="M22.2857 12.8571C20.7132 12.8571 19.1559 12.9223 17.6161 13.0501C15.8569 13.1961 14.5714 14.6889 14.5714 16.4094V21.3071C14.5714 23.0301 15.8605 24.5238 17.622 24.6676C19.0435 24.7836 20.48 24.8471 21.9296 24.856L25.1082 28.0347C25.3533 28.2798 25.722 28.3531 26.0423 28.2205C26.3626 28.0878 26.5714 27.7752 26.5714 27.4286V24.6973C26.6975 24.6878 26.8235 24.6779 26.9494 24.6677C28.7109 24.5239 30 23.0303 30 21.3072V16.4094C30 14.6889 28.7146 13.1961 26.9554 13.0501C25.4156 12.9223 23.8581 12.8571 22.2857 12.8571Z" fill="#FFFFFF"/>
</svg>
